<mxfile host="Electron" modified="2023-11-19T15:06:30.808Z" agent="Mozilla/5.0 (Windows NT 10.0; Win64; x64) AppleWebKit/537.36 (KHTML, like Gecko) draw.io/21.6.8 Chrome/114.0.5735.289 Electron/25.5.0 Safari/537.36" etag="sMBUBESlCLp0xa9mGgr2" version="21.6.8" type="device">
  <diagram id="C5RBs43oDa-KdzZeNtuy" name="Page-1">
    <mxGraphModel dx="2501" dy="844" grid="1" gridSize="10" guides="1" tooltips="1" connect="1" arrows="1" fold="1" page="1" pageScale="1" pageWidth="827" pageHeight="1169" math="0" shadow="0">
      <root>
        <mxCell id="WIyWlLk6GJQsqaUBKTNV-0" />
        <mxCell id="WIyWlLk6GJQsqaUBKTNV-1" parent="WIyWlLk6GJQsqaUBKTNV-0" />
        <mxCell id="zkfFHV4jXpPFQw0GAbJ--0" value="Usuario" style="swimlane;fontStyle=0;align=center;verticalAlign=top;childLayout=stackLayout;horizontal=1;startSize=26;horizontalStack=0;resizeParent=1;resizeLast=0;collapsible=1;marginBottom=0;rounded=0;shadow=0;strokeWidth=1;" parent="WIyWlLk6GJQsqaUBKTNV-1" vertex="1">
          <mxGeometry x="330" y="10" width="172" height="190" as="geometry">
            <mxRectangle x="220" y="120" width="160" height="26" as="alternateBounds" />
          </mxGeometry>
        </mxCell>
        <mxCell id="zkfFHV4jXpPFQw0GAbJ--1" value="# nome: String&#xa;" style="text;align=left;verticalAlign=top;spacingLeft=4;spacingRight=4;overflow=hidden;rotatable=0;points=[[0,0.5],[1,0.5]];portConstraint=eastwest;" parent="zkfFHV4jXpPFQw0GAbJ--0" vertex="1">
          <mxGeometry y="26" width="172" height="26" as="geometry" />
        </mxCell>
        <mxCell id="iw9Q5mtI_wV-XpBD978V-0" value="# email: String&#xa;" style="text;align=left;verticalAlign=top;spacingLeft=4;spacingRight=4;overflow=hidden;rotatable=0;points=[[0,0.5],[1,0.5]];portConstraint=eastwest;" parent="zkfFHV4jXpPFQw0GAbJ--0" vertex="1">
          <mxGeometry y="52" width="172" height="26" as="geometry" />
        </mxCell>
        <mxCell id="zkfFHV4jXpPFQw0GAbJ--3" value="# senha: String" style="text;align=left;verticalAlign=top;spacingLeft=4;spacingRight=4;overflow=hidden;rotatable=0;points=[[0,0.5],[1,0.5]];portConstraint=eastwest;rounded=0;shadow=0;html=0;" parent="zkfFHV4jXpPFQw0GAbJ--0" vertex="1">
          <mxGeometry y="78" width="172" height="26" as="geometry" />
        </mxCell>
        <mxCell id="zkfFHV4jXpPFQw0GAbJ--4" value="" style="line;html=1;strokeWidth=1;align=left;verticalAlign=middle;spacingTop=-1;spacingLeft=3;spacingRight=3;rotatable=0;labelPosition=right;points=[];portConstraint=eastwest;" parent="zkfFHV4jXpPFQw0GAbJ--0" vertex="1">
          <mxGeometry y="104" width="172" height="8" as="geometry" />
        </mxCell>
        <mxCell id="oFZszjIOEmXpLR5tDm6m-42" value="+ fazerLogin: void" style="text;align=left;verticalAlign=top;spacingLeft=4;spacingRight=4;overflow=hidden;rotatable=0;points=[[0,0.5],[1,0.5]];portConstraint=eastwest;" parent="zkfFHV4jXpPFQw0GAbJ--0" vertex="1">
          <mxGeometry y="112" width="172" height="26" as="geometry" />
        </mxCell>
        <mxCell id="zkfFHV4jXpPFQw0GAbJ--5" value="+ fazerLogout: boolean" style="text;align=left;verticalAlign=top;spacingLeft=4;spacingRight=4;overflow=hidden;rotatable=0;points=[[0,0.5],[1,0.5]];portConstraint=eastwest;" parent="zkfFHV4jXpPFQw0GAbJ--0" vertex="1">
          <mxGeometry y="138" width="172" height="26" as="geometry" />
        </mxCell>
        <mxCell id="iw9Q5mtI_wV-XpBD978V-14" style="edgeStyle=orthogonalEdgeStyle;rounded=0;orthogonalLoop=1;jettySize=auto;html=1;entryX=0.5;entryY=1;entryDx=0;entryDy=0;exitX=0.5;exitY=0;exitDx=0;exitDy=0;" parent="WIyWlLk6GJQsqaUBKTNV-1" source="zkfFHV4jXpPFQw0GAbJ--6" target="zkfFHV4jXpPFQw0GAbJ--0" edge="1">
          <mxGeometry relative="1" as="geometry" />
        </mxCell>
        <mxCell id="Ha8SSbPoC3t7y5uVHx6J-20" style="edgeStyle=orthogonalEdgeStyle;rounded=0;orthogonalLoop=1;jettySize=auto;html=1;entryX=0.5;entryY=0;entryDx=0;entryDy=0;" parent="WIyWlLk6GJQsqaUBKTNV-1" source="zkfFHV4jXpPFQw0GAbJ--6" target="oFZszjIOEmXpLR5tDm6m-12" edge="1">
          <mxGeometry relative="1" as="geometry" />
        </mxCell>
        <mxCell id="zkfFHV4jXpPFQw0GAbJ--6" value="Medico" style="swimlane;fontStyle=0;align=center;verticalAlign=top;childLayout=stackLayout;horizontal=1;startSize=26;horizontalStack=0;resizeParent=1;resizeLast=0;collapsible=1;marginBottom=0;rounded=0;shadow=0;strokeWidth=1;" parent="WIyWlLk6GJQsqaUBKTNV-1" vertex="1">
          <mxGeometry x="72" y="262" width="210" height="164" as="geometry">
            <mxRectangle x="130" y="380" width="160" height="26" as="alternateBounds" />
          </mxGeometry>
        </mxCell>
        <mxCell id="GaLUHQlbnaczesffClA8-1" value="- idEspecialidade: int (FK)" style="text;align=left;verticalAlign=top;spacingLeft=4;spacingRight=4;overflow=hidden;rotatable=0;points=[[0,0.5],[1,0.5]];portConstraint=eastwest;" parent="zkfFHV4jXpPFQw0GAbJ--6" vertex="1">
          <mxGeometry y="26" width="210" height="26" as="geometry" />
        </mxCell>
        <mxCell id="iw9Q5mtI_wV-XpBD978V-21" value="- numeroRegistro:Â Long" style="text;align=left;verticalAlign=top;spacingLeft=4;spacingRight=4;overflow=hidden;rotatable=0;points=[[0,0.5],[1,0.5]];portConstraint=eastwest;" parent="zkfFHV4jXpPFQw0GAbJ--6" vertex="1">
          <mxGeometry y="52" width="210" height="26" as="geometry" />
        </mxCell>
        <mxCell id="zkfFHV4jXpPFQw0GAbJ--9" value="" style="line;html=1;strokeWidth=1;align=left;verticalAlign=middle;spacingTop=-1;spacingLeft=3;spacingRight=3;rotatable=0;labelPosition=right;points=[];portConstraint=eastwest;" parent="zkfFHV4jXpPFQw0GAbJ--6" vertex="1">
          <mxGeometry y="78" width="210" height="8" as="geometry" />
        </mxCell>
        <mxCell id="iw9Q5mtI_wV-XpBD978V-15" value="+ obterEspecialidade: Especialidade" style="text;align=left;verticalAlign=top;spacingLeft=4;spacingRight=4;overflow=hidden;rotatable=0;points=[[0,0.5],[1,0.5]];portConstraint=eastwest;" parent="zkfFHV4jXpPFQw0GAbJ--6" vertex="1">
          <mxGeometry y="86" width="210" height="26" as="geometry" />
        </mxCell>
        <mxCell id="iw9Q5mtI_wV-XpBD978V-32" value="+ obterNumeroRegistro: Long" style="text;align=left;verticalAlign=top;spacingLeft=4;spacingRight=4;overflow=hidden;rotatable=0;points=[[0,0.5],[1,0.5]];portConstraint=eastwest;" parent="zkfFHV4jXpPFQw0GAbJ--6" vertex="1">
          <mxGeometry y="112" width="210" height="26" as="geometry" />
        </mxCell>
        <mxCell id="iw9Q5mtI_wV-XpBD978V-13" style="edgeStyle=orthogonalEdgeStyle;rounded=0;orthogonalLoop=1;jettySize=auto;html=1;entryX=0.5;entryY=1;entryDx=0;entryDy=0;exitX=0.5;exitY=0;exitDx=0;exitDy=0;" parent="WIyWlLk6GJQsqaUBKTNV-1" source="zkfFHV4jXpPFQw0GAbJ--13" target="zkfFHV4jXpPFQw0GAbJ--0" edge="1">
          <mxGeometry relative="1" as="geometry" />
        </mxCell>
        <mxCell id="zkfFHV4jXpPFQw0GAbJ--13" value="Paciente" style="swimlane;fontStyle=0;align=center;verticalAlign=top;childLayout=stackLayout;horizontal=1;startSize=26;horizontalStack=0;resizeParent=1;resizeLast=0;collapsible=1;marginBottom=0;rounded=0;shadow=0;strokeWidth=1;" parent="WIyWlLk6GJQsqaUBKTNV-1" vertex="1">
          <mxGeometry x="542" y="262" width="208" height="354" as="geometry">
            <mxRectangle x="340" y="380" width="170" height="26" as="alternateBounds" />
          </mxGeometry>
        </mxCell>
        <mxCell id="zkfFHV4jXpPFQw0GAbJ--14" value="- idPaciente: int" style="text;align=left;verticalAlign=top;spacingLeft=4;spacingRight=4;overflow=hidden;rotatable=0;points=[[0,0.5],[1,0.5]];portConstraint=eastwest;" parent="zkfFHV4jXpPFQw0GAbJ--13" vertex="1">
          <mxGeometry y="26" width="208" height="26" as="geometry" />
        </mxCell>
        <mxCell id="T3oujVGupuCSrf6qP3ur-0" value="- dataNascimento: Date" style="text;align=left;verticalAlign=top;spacingLeft=4;spacingRight=4;overflow=hidden;rotatable=0;points=[[0,0.5],[1,0.5]];portConstraint=eastwest;" parent="zkfFHV4jXpPFQw0GAbJ--13" vertex="1">
          <mxGeometry y="52" width="208" height="28" as="geometry" />
        </mxCell>
        <mxCell id="T3oujVGupuCSrf6qP3ur-1" value="- sexo: char" style="text;whiteSpace=wrap;html=1;" parent="zkfFHV4jXpPFQw0GAbJ--13" vertex="1">
          <mxGeometry y="80" width="208" height="30" as="geometry" />
        </mxCell>
        <mxCell id="iw9Q5mtI_wV-XpBD978V-33" value="- cpf: String" style="text;align=left;verticalAlign=top;spacingLeft=4;spacingRight=4;overflow=hidden;rotatable=0;points=[[0,0.5],[1,0.5]];portConstraint=eastwest;" parent="zkfFHV4jXpPFQw0GAbJ--13" vertex="1">
          <mxGeometry y="110" width="208" height="26" as="geometry" />
        </mxCell>
        <mxCell id="zkfFHV4jXpPFQw0GAbJ--15" value="" style="line;html=1;strokeWidth=1;align=left;verticalAlign=middle;spacingTop=-1;spacingLeft=3;spacingRight=3;rotatable=0;labelPosition=right;points=[];portConstraint=eastwest;" parent="zkfFHV4jXpPFQw0GAbJ--13" vertex="1">
          <mxGeometry y="136" width="208" height="8" as="geometry" />
        </mxCell>
        <mxCell id="oFZszjIOEmXpLR5tDm6m-37" value="- marcarConsulta: void" style="text;strokeColor=none;align=left;fillColor=none;html=1;verticalAlign=middle;whiteSpace=wrap;rounded=0;" parent="zkfFHV4jXpPFQw0GAbJ--13" vertex="1">
          <mxGeometry y="144" width="208" height="30" as="geometry" />
        </mxCell>
        <mxCell id="oFZszjIOEmXpLR5tDm6m-38" value="- cancelarConsulta: void" style="text;strokeColor=none;align=left;fillColor=none;html=1;verticalAlign=middle;whiteSpace=wrap;rounded=0;" parent="zkfFHV4jXpPFQw0GAbJ--13" vertex="1">
          <mxGeometry y="174" width="208" height="30" as="geometry" />
        </mxCell>
        <mxCell id="T3oujVGupuCSrf6qP3ur-2" value="+ obterId: int" style="text;strokeColor=none;align=left;fillColor=none;html=1;verticalAlign=middle;whiteSpace=wrap;rounded=0;" parent="zkfFHV4jXpPFQw0GAbJ--13" vertex="1">
          <mxGeometry y="204" width="208" height="30" as="geometry" />
        </mxCell>
        <mxCell id="iw9Q5mtI_wV-XpBD978V-36" value="+ obterIdade: int" style="text;strokeColor=none;align=left;fillColor=none;html=1;verticalAlign=middle;whiteSpace=wrap;rounded=0;" parent="zkfFHV4jXpPFQw0GAbJ--13" vertex="1">
          <mxGeometry y="234" width="208" height="30" as="geometry" />
        </mxCell>
        <mxCell id="T3oujVGupuCSrf6qP3ur-4" value="+ obterDataNascimento: Date" style="text;strokeColor=none;align=left;fillColor=none;html=1;verticalAlign=middle;whiteSpace=wrap;rounded=0;" parent="zkfFHV4jXpPFQw0GAbJ--13" vertex="1">
          <mxGeometry y="264" width="208" height="30" as="geometry" />
        </mxCell>
        <mxCell id="T3oujVGupuCSrf6qP3ur-3" value="+ obterSexo: char" style="text;strokeColor=none;align=left;fillColor=none;html=1;verticalAlign=middle;whiteSpace=wrap;rounded=0;" parent="zkfFHV4jXpPFQw0GAbJ--13" vertex="1">
          <mxGeometry y="294" width="208" height="30" as="geometry" />
        </mxCell>
        <mxCell id="iw9Q5mtI_wV-XpBD978V-37" value="+ obterCpf: String" style="text;strokeColor=none;align=left;fillColor=none;html=1;verticalAlign=middle;whiteSpace=wrap;rounded=0;" parent="zkfFHV4jXpPFQw0GAbJ--13" vertex="1">
          <mxGeometry y="324" width="208" height="30" as="geometry" />
        </mxCell>
        <mxCell id="iw9Q5mtI_wV-XpBD978V-12" style="edgeStyle=orthogonalEdgeStyle;rounded=0;orthogonalLoop=1;jettySize=auto;html=1;entryX=0.5;entryY=1;entryDx=0;entryDy=0;" parent="WIyWlLk6GJQsqaUBKTNV-1" source="oFZszjIOEmXpLR5tDm6m-0" target="zkfFHV4jXpPFQw0GAbJ--0" edge="1">
          <mxGeometry relative="1" as="geometry" />
        </mxCell>
        <mxCell id="oFZszjIOEmXpLR5tDm6m-0" value="Admin" style="swimlane;fontStyle=0;align=center;verticalAlign=top;childLayout=stackLayout;horizontal=1;startSize=26;horizontalStack=0;resizeParent=1;resizeLast=0;collapsible=1;marginBottom=0;rounded=0;shadow=0;strokeWidth=1;" parent="WIyWlLk6GJQsqaUBKTNV-1" vertex="1">
          <mxGeometry x="330" y="262" width="170" height="250" as="geometry">
            <mxRectangle x="130" y="380" width="160" height="26" as="alternateBounds" />
          </mxGeometry>
        </mxCell>
        <mxCell id="oFZszjIOEmXpLR5tDm6m-1" value=".." style="text;align=left;verticalAlign=top;spacingLeft=4;spacingRight=4;overflow=hidden;rotatable=0;points=[[0,0.5],[1,0.5]];portConstraint=eastwest;" parent="oFZszjIOEmXpLR5tDm6m-0" vertex="1">
          <mxGeometry y="26" width="170" height="26" as="geometry" />
        </mxCell>
        <mxCell id="oFZszjIOEmXpLR5tDm6m-3" value="" style="line;html=1;strokeWidth=1;align=left;verticalAlign=middle;spacingTop=-1;spacingLeft=3;spacingRight=3;rotatable=0;labelPosition=right;points=[];portConstraint=eastwest;" parent="oFZszjIOEmXpLR5tDm6m-0" vertex="1">
          <mxGeometry y="52" width="170" height="8" as="geometry" />
        </mxCell>
        <mxCell id="oFZszjIOEmXpLR5tDm6m-4" value="createNewUser: void" style="text;align=left;verticalAlign=top;spacingLeft=4;spacingRight=4;overflow=hidden;rotatable=0;points=[[0,0.5],[1,0.5]];portConstraint=eastwest;fontStyle=4" parent="oFZszjIOEmXpLR5tDm6m-0" vertex="1">
          <mxGeometry y="60" width="170" height="26" as="geometry" />
        </mxCell>
        <mxCell id="oFZszjIOEmXpLR5tDm6m-43" value="editAUser: void" style="text;align=left;verticalAlign=top;spacingLeft=4;spacingRight=4;overflow=hidden;rotatable=0;points=[[0,0.5],[1,0.5]];portConstraint=eastwest;fontStyle=4" parent="oFZszjIOEmXpLR5tDm6m-0" vertex="1">
          <mxGeometry y="86" width="170" height="26" as="geometry" />
        </mxCell>
        <mxCell id="oFZszjIOEmXpLR5tDm6m-5" value="deleteAUser: void" style="text;align=left;verticalAlign=top;spacingLeft=4;spacingRight=4;overflow=hidden;rotatable=0;points=[[0,0.5],[1,0.5]];portConstraint=eastwest;fontStyle=4" parent="oFZszjIOEmXpLR5tDm6m-0" vertex="1">
          <mxGeometry y="112" width="170" height="26" as="geometry" />
        </mxCell>
        <mxCell id="oFZszjIOEmXpLR5tDm6m-44" value="&lt;span style=&quot;color: rgb(240, 240, 240); font-family: Helvetica; font-size: 12px; font-style: normal; font-variant-ligatures: normal; font-variant-caps: normal; font-weight: 400; letter-spacing: normal; orphans: 2; text-align: left; text-indent: 0px; text-transform: none; widows: 2; word-spacing: 0px; -webkit-text-stroke-width: 0px; background-color: rgb(27, 29, 30); text-decoration: underline; float: none; display: inline !important;&quot;&gt;createNewSpecialty: void&lt;/span&gt;" style="text;whiteSpace=wrap;html=1;" parent="oFZszjIOEmXpLR5tDm6m-0" vertex="1">
          <mxGeometry y="138" width="170" height="26" as="geometry" />
        </mxCell>
        <mxCell id="oFZszjIOEmXpLR5tDm6m-45" value="&lt;span style=&quot;color: rgb(240, 240, 240); font-family: Helvetica; font-size: 12px; font-style: normal; font-variant-ligatures: normal; font-variant-caps: normal; font-weight: 400; letter-spacing: normal; orphans: 2; text-align: left; text-indent: 0px; text-transform: none; widows: 2; word-spacing: 0px; -webkit-text-stroke-width: 0px; background-color: rgb(27, 29, 30); text-decoration: underline; float: none; display: inline !important;&quot;&gt;editASpecialty: void&lt;/span&gt;" style="text;whiteSpace=wrap;html=1;" parent="oFZszjIOEmXpLR5tDm6m-0" vertex="1">
          <mxGeometry y="164" width="170" height="30" as="geometry" />
        </mxCell>
        <mxCell id="oFZszjIOEmXpLR5tDm6m-46" value="&lt;span style=&quot;color: rgb(240, 240, 240); font-family: Helvetica; font-size: 12px; font-style: normal; font-variant-ligatures: normal; font-variant-caps: normal; font-weight: 400; letter-spacing: normal; orphans: 2; text-align: left; text-indent: 0px; text-transform: none; widows: 2; word-spacing: 0px; -webkit-text-stroke-width: 0px; background-color: rgb(27, 29, 30); text-decoration: underline; float: none; display: inline !important;&quot;&gt;deleteASpecialty: void&lt;/span&gt;" style="text;whiteSpace=wrap;html=1;" parent="oFZszjIOEmXpLR5tDm6m-0" vertex="1">
          <mxGeometry y="194" width="170" height="30" as="geometry" />
        </mxCell>
        <mxCell id="oFZszjIOEmXpLR5tDm6m-12" value="Consulta" style="swimlane;fontStyle=0;align=center;verticalAlign=top;childLayout=stackLayout;horizontal=1;startSize=26;horizontalStack=0;resizeParent=1;resizeLast=0;collapsible=1;marginBottom=0;rounded=0;shadow=0;strokeWidth=1;" parent="WIyWlLk6GJQsqaUBKTNV-1" vertex="1">
          <mxGeometry x="72" y="510" width="210" height="502" as="geometry">
            <mxRectangle x="550" y="140" width="160" height="26" as="alternateBounds" />
          </mxGeometry>
        </mxCell>
        <mxCell id="oFZszjIOEmXpLR5tDm6m-13" value="- idConsulta: int (PK)" style="text;align=left;verticalAlign=top;spacingLeft=4;spacingRight=4;overflow=hidden;rotatable=0;points=[[0,0.5],[1,0.5]];portConstraint=eastwest;" parent="oFZszjIOEmXpLR5tDm6m-12" vertex="1">
          <mxGeometry y="26" width="210" height="26" as="geometry" />
        </mxCell>
        <mxCell id="Ha8SSbPoC3t7y5uVHx6J-17" value="- idMedico: int (FK)" style="text;align=left;verticalAlign=top;spacingLeft=4;spacingRight=4;overflow=hidden;rotatable=0;points=[[0,0.5],[1,0.5]];portConstraint=eastwest;rounded=0;shadow=0;html=0;" parent="oFZszjIOEmXpLR5tDm6m-12" vertex="1">
          <mxGeometry y="52" width="210" height="26" as="geometry" />
        </mxCell>
        <mxCell id="oFZszjIOEmXpLR5tDm6m-14" value="- idPaciente: int (FK)" style="text;align=left;verticalAlign=top;spacingLeft=4;spacingRight=4;overflow=hidden;rotatable=0;points=[[0,0.5],[1,0.5]];portConstraint=eastwest;rounded=0;shadow=0;html=0;" parent="oFZszjIOEmXpLR5tDm6m-12" vertex="1">
          <mxGeometry y="78" width="210" height="26" as="geometry" />
        </mxCell>
        <mxCell id="HVsXuJknIAWahlm6snJk-1" value="- idAgenda: int (FK)" style="text;align=left;verticalAlign=top;spacingLeft=4;spacingRight=4;overflow=hidden;rotatable=0;points=[[0,0.5],[1,0.5]];portConstraint=eastwest;rounded=0;shadow=0;html=0;" vertex="1" parent="oFZszjIOEmXpLR5tDm6m-12">
          <mxGeometry y="104" width="210" height="26" as="geometry" />
        </mxCell>
        <mxCell id="T3oujVGupuCSrf6qP3ur-7" value="- idProntuario: int (FK)" style="text;align=left;verticalAlign=top;spacingLeft=4;spacingRight=4;overflow=hidden;rotatable=0;points=[[0,0.5],[1,0.5]];portConstraint=eastwest;rounded=0;shadow=0;html=0;" parent="oFZszjIOEmXpLR5tDm6m-12" vertex="1">
          <mxGeometry y="130" width="210" height="26" as="geometry" />
        </mxCell>
        <mxCell id="oFZszjIOEmXpLR5tDm6m-15" value="- dataMarcacao: Date" style="text;align=left;verticalAlign=top;spacingLeft=4;spacingRight=4;overflow=hidden;rotatable=0;points=[[0,0.5],[1,0.5]];portConstraint=eastwest;rounded=0;shadow=0;html=0;" parent="oFZszjIOEmXpLR5tDm6m-12" vertex="1">
          <mxGeometry y="156" width="210" height="26" as="geometry" />
        </mxCell>
        <mxCell id="iw9Q5mtI_wV-XpBD978V-34" value="- tipoConsulta: String" style="text;align=left;verticalAlign=top;spacingLeft=4;spacingRight=4;overflow=hidden;rotatable=0;points=[[0,0.5],[1,0.5]];portConstraint=eastwest;rounded=0;shadow=0;html=0;" parent="oFZszjIOEmXpLR5tDm6m-12" vertex="1">
          <mxGeometry y="182" width="210" height="26" as="geometry" />
        </mxCell>
        <mxCell id="iw9Q5mtI_wV-XpBD978V-27" value="- isRealizada: boolean" style="text;align=left;verticalAlign=top;spacingLeft=4;spacingRight=4;overflow=hidden;rotatable=0;points=[[0,0.5],[1,0.5]];portConstraint=eastwest;rounded=0;shadow=0;html=0;" parent="oFZszjIOEmXpLR5tDm6m-12" vertex="1">
          <mxGeometry y="208" width="210" height="26" as="geometry" />
        </mxCell>
        <mxCell id="oFZszjIOEmXpLR5tDm6m-18" value="" style="line;html=1;strokeWidth=1;align=left;verticalAlign=middle;spacingTop=-1;spacingLeft=3;spacingRight=3;rotatable=0;labelPosition=right;points=[];portConstraint=eastwest;" parent="oFZszjIOEmXpLR5tDm6m-12" vertex="1">
          <mxGeometry y="234" width="210" height="8" as="geometry" />
        </mxCell>
        <mxCell id="iw9Q5mtI_wV-XpBD978V-28" value="+ obterProfissional: Profissional" style="text;align=left;verticalAlign=top;spacingLeft=4;spacingRight=4;overflow=hidden;rotatable=0;points=[[0,0.5],[1,0.5]];portConstraint=eastwest;rounded=0;shadow=0;html=0;" parent="oFZszjIOEmXpLR5tDm6m-12" vertex="1">
          <mxGeometry y="242" width="210" height="26" as="geometry" />
        </mxCell>
        <mxCell id="iw9Q5mtI_wV-XpBD978V-29" value="+ obterPaciente: Paciente" style="text;align=left;verticalAlign=top;spacingLeft=4;spacingRight=4;overflow=hidden;rotatable=0;points=[[0,0.5],[1,0.5]];portConstraint=eastwest;rounded=0;shadow=0;html=0;" parent="oFZszjIOEmXpLR5tDm6m-12" vertex="1">
          <mxGeometry y="268" width="210" height="26" as="geometry" />
        </mxCell>
        <mxCell id="T3oujVGupuCSrf6qP3ur-11" value="- obterProntuario: String" style="text;align=left;verticalAlign=top;spacingLeft=4;spacingRight=4;overflow=hidden;rotatable=0;points=[[0,0.5],[1,0.5]];portConstraint=eastwest;rounded=0;shadow=0;html=0;" parent="oFZszjIOEmXpLR5tDm6m-12" vertex="1">
          <mxGeometry y="294" width="210" height="26" as="geometry" />
        </mxCell>
        <mxCell id="iw9Q5mtI_wV-XpBD978V-30" value="+ obterDataMarcacao: Date" style="text;align=left;verticalAlign=top;spacingLeft=4;spacingRight=4;overflow=hidden;rotatable=0;points=[[0,0.5],[1,0.5]];portConstraint=eastwest;rounded=0;shadow=0;html=0;" parent="oFZszjIOEmXpLR5tDm6m-12" vertex="1">
          <mxGeometry y="320" width="210" height="26" as="geometry" />
        </mxCell>
        <mxCell id="T3oujVGupuCSrf6qP3ur-8" value="+ obterDataConsulta: Date" style="text;align=left;verticalAlign=top;spacingLeft=4;spacingRight=4;overflow=hidden;rotatable=0;points=[[0,0.5],[1,0.5]];portConstraint=eastwest;rounded=0;shadow=0;html=0;" parent="oFZszjIOEmXpLR5tDm6m-12" vertex="1">
          <mxGeometry y="346" width="210" height="26" as="geometry" />
        </mxCell>
        <mxCell id="T3oujVGupuCSrf6qP3ur-9" value="+ obterDataRealizacao: Date" style="text;align=left;verticalAlign=top;spacingLeft=4;spacingRight=4;overflow=hidden;rotatable=0;points=[[0,0.5],[1,0.5]];portConstraint=eastwest;rounded=0;shadow=0;html=0;" parent="oFZszjIOEmXpLR5tDm6m-12" vertex="1">
          <mxGeometry y="372" width="210" height="26" as="geometry" />
        </mxCell>
        <mxCell id="iw9Q5mtI_wV-XpBD978V-31" value="+ obterStatus: boolean" style="text;align=left;verticalAlign=top;spacingLeft=4;spacingRight=4;overflow=hidden;rotatable=0;points=[[0,0.5],[1,0.5]];portConstraint=eastwest;rounded=0;shadow=0;html=0;" parent="oFZszjIOEmXpLR5tDm6m-12" vertex="1">
          <mxGeometry y="398" width="210" height="26" as="geometry" />
        </mxCell>
        <mxCell id="iw9Q5mtI_wV-XpBD978V-35" value="+ setTipoConsulta(String t): void" style="text;align=left;verticalAlign=top;spacingLeft=4;spacingRight=4;overflow=hidden;rotatable=0;points=[[0,0.5],[1,0.5]];portConstraint=eastwest;rounded=0;shadow=0;html=0;" parent="oFZszjIOEmXpLR5tDm6m-12" vertex="1">
          <mxGeometry y="424" width="210" height="26" as="geometry" />
        </mxCell>
        <mxCell id="T3oujVGupuCSrf6qP3ur-10" value="# escreverProntuario(String): void" style="text;align=left;verticalAlign=top;spacingLeft=4;spacingRight=4;overflow=hidden;rotatable=0;points=[[0,0.5],[1,0.5]];portConstraint=eastwest;rounded=0;shadow=0;html=0;" parent="oFZszjIOEmXpLR5tDm6m-12" vertex="1">
          <mxGeometry y="450" width="210" height="26" as="geometry" />
        </mxCell>
        <mxCell id="iw9Q5mtI_wV-XpBD978V-16" style="edgeStyle=orthogonalEdgeStyle;rounded=0;orthogonalLoop=1;jettySize=auto;html=1;entryX=0.276;entryY=-0.007;entryDx=0;entryDy=0;entryPerimeter=0;" parent="WIyWlLk6GJQsqaUBKTNV-1" source="oFZszjIOEmXpLR5tDm6m-25" target="zkfFHV4jXpPFQw0GAbJ--6" edge="1">
          <mxGeometry relative="1" as="geometry" />
        </mxCell>
        <mxCell id="oFZszjIOEmXpLR5tDm6m-25" value="Especialidade" style="swimlane;fontStyle=0;align=center;verticalAlign=top;childLayout=stackLayout;horizontal=1;startSize=26;horizontalStack=0;resizeParent=1;resizeLast=0;collapsible=1;marginBottom=0;rounded=0;shadow=0;strokeWidth=1;" parent="WIyWlLk6GJQsqaUBKTNV-1" vertex="1">
          <mxGeometry x="-170" y="20" width="240" height="112" as="geometry">
            <mxRectangle x="550" y="140" width="160" height="26" as="alternateBounds" />
          </mxGeometry>
        </mxCell>
        <mxCell id="Ha8SSbPoC3t7y5uVHx6J-0" value="- idEspecialidade: int (PK)" style="text;align=left;verticalAlign=top;spacingLeft=4;spacingRight=4;overflow=hidden;rotatable=0;points=[[0,0.5],[1,0.5]];portConstraint=eastwest;" parent="oFZszjIOEmXpLR5tDm6m-25" vertex="1">
          <mxGeometry y="26" width="240" height="26" as="geometry" />
        </mxCell>
        <mxCell id="oFZszjIOEmXpLR5tDm6m-26" value="- nome: String" style="text;align=left;verticalAlign=top;spacingLeft=4;spacingRight=4;overflow=hidden;rotatable=0;points=[[0,0.5],[1,0.5]];portConstraint=eastwest;" parent="oFZszjIOEmXpLR5tDm6m-25" vertex="1">
          <mxGeometry y="52" width="240" height="26" as="geometry" />
        </mxCell>
        <mxCell id="oFZszjIOEmXpLR5tDm6m-31" value="" style="line;html=1;strokeWidth=1;align=left;verticalAlign=middle;spacingTop=-1;spacingLeft=3;spacingRight=3;rotatable=0;labelPosition=right;points=[];portConstraint=eastwest;" parent="oFZszjIOEmXpLR5tDm6m-25" vertex="1">
          <mxGeometry y="78" width="240" height="8" as="geometry" />
        </mxCell>
        <mxCell id="iw9Q5mtI_wV-XpBD978V-17" value="+ obterNome: String" style="text;align=left;verticalAlign=top;spacingLeft=4;spacingRight=4;overflow=hidden;rotatable=0;points=[[0,0.5],[1,0.5]];portConstraint=eastwest;" parent="oFZszjIOEmXpLR5tDm6m-25" vertex="1">
          <mxGeometry y="86" width="240" height="26" as="geometry" />
        </mxCell>
        <mxCell id="iw9Q5mtI_wV-XpBD978V-18" value="tem" style="text;html=1;align=center;verticalAlign=middle;resizable=0;points=[];autosize=1;strokeColor=none;fillColor=none;" parent="WIyWlLk6GJQsqaUBKTNV-1" vertex="1">
          <mxGeometry x="130" y="140" width="40" height="30" as="geometry" />
        </mxCell>
        <mxCell id="iw9Q5mtI_wV-XpBD978V-19" value="0..N" style="text;html=1;align=center;verticalAlign=middle;resizable=0;points=[];autosize=1;strokeColor=none;fillColor=none;" parent="WIyWlLk6GJQsqaUBKTNV-1" vertex="1">
          <mxGeometry x="87" y="220" width="50" height="30" as="geometry" />
        </mxCell>
        <mxCell id="iw9Q5mtI_wV-XpBD978V-20" value="1..N" style="text;html=1;align=center;verticalAlign=middle;resizable=0;points=[];autosize=1;strokeColor=none;fillColor=none;" parent="WIyWlLk6GJQsqaUBKTNV-1" vertex="1">
          <mxGeometry x="70" y="50" width="50" height="30" as="geometry" />
        </mxCell>
        <mxCell id="T3oujVGupuCSrf6qP3ur-12" value="Prontuario" style="swimlane;fontStyle=1;align=center;verticalAlign=top;childLayout=stackLayout;horizontal=1;startSize=26;horizontalStack=0;resizeParent=1;resizeParentMax=0;resizeLast=0;collapsible=1;marginBottom=0;whiteSpace=wrap;html=1;" parent="WIyWlLk6GJQsqaUBKTNV-1" vertex="1">
          <mxGeometry x="486" y="795" width="320" height="164" as="geometry" />
        </mxCell>
        <mxCell id="T3oujVGupuCSrf6qP3ur-13" value="- idProntuario: int (FK -&amp;gt; idPaciente)" style="text;strokeColor=none;fillColor=none;align=left;verticalAlign=top;spacingLeft=4;spacingRight=4;overflow=hidden;rotatable=0;points=[[0,0.5],[1,0.5]];portConstraint=eastwest;whiteSpace=wrap;html=1;" parent="T3oujVGupuCSrf6qP3ur-12" vertex="1">
          <mxGeometry y="26" width="320" height="26" as="geometry" />
        </mxCell>
        <mxCell id="T3oujVGupuCSrf6qP3ur-15" value="- descricao: String&amp;nbsp;" style="text;strokeColor=none;fillColor=none;align=left;verticalAlign=top;spacingLeft=4;spacingRight=4;overflow=hidden;rotatable=0;points=[[0,0.5],[1,0.5]];portConstraint=eastwest;whiteSpace=wrap;html=1;" parent="T3oujVGupuCSrf6qP3ur-12" vertex="1">
          <mxGeometry y="52" width="320" height="26" as="geometry" />
        </mxCell>
        <mxCell id="T3oujVGupuCSrf6qP3ur-16" value="" style="line;strokeWidth=1;fillColor=none;align=left;verticalAlign=middle;spacingTop=-1;spacingLeft=3;spacingRight=3;rotatable=0;labelPosition=right;points=[];portConstraint=eastwest;strokeColor=inherit;" parent="T3oujVGupuCSrf6qP3ur-12" vertex="1">
          <mxGeometry y="78" width="320" height="8" as="geometry" />
        </mxCell>
        <mxCell id="T3oujVGupuCSrf6qP3ur-17" value="+ obterIdProntuario: int" style="text;strokeColor=none;fillColor=none;align=left;verticalAlign=top;spacingLeft=4;spacingRight=4;overflow=hidden;rotatable=0;points=[[0,0.5],[1,0.5]];portConstraint=eastwest;whiteSpace=wrap;html=1;" parent="T3oujVGupuCSrf6qP3ur-12" vertex="1">
          <mxGeometry y="86" width="320" height="26" as="geometry" />
        </mxCell>
        <mxCell id="T3oujVGupuCSrf6qP3ur-19" value="+ obterDescricao: String" style="text;strokeColor=none;fillColor=none;align=left;verticalAlign=top;spacingLeft=4;spacingRight=4;overflow=hidden;rotatable=0;points=[[0,0.5],[1,0.5]];portConstraint=eastwest;whiteSpace=wrap;html=1;" parent="T3oujVGupuCSrf6qP3ur-12" vertex="1">
          <mxGeometry y="112" width="320" height="26" as="geometry" />
        </mxCell>
        <mxCell id="T3oujVGupuCSrf6qP3ur-18" value="+ escreverDescricao(String): void" style="text;strokeColor=none;fillColor=none;align=left;verticalAlign=top;spacingLeft=4;spacingRight=4;overflow=hidden;rotatable=0;points=[[0,0.5],[1,0.5]];portConstraint=eastwest;whiteSpace=wrap;html=1;" parent="T3oujVGupuCSrf6qP3ur-12" vertex="1">
          <mxGeometry y="138" width="320" height="26" as="geometry" />
        </mxCell>
        <mxCell id="Ha8SSbPoC3t7y5uVHx6J-1" style="edgeStyle=orthogonalEdgeStyle;rounded=0;orthogonalLoop=1;jettySize=auto;html=1;entryX=0.5;entryY=0;entryDx=0;entryDy=0;" parent="WIyWlLk6GJQsqaUBKTNV-1" source="iw9Q5mtI_wV-XpBD978V-37" target="T3oujVGupuCSrf6qP3ur-12" edge="1">
          <mxGeometry relative="1" as="geometry" />
        </mxCell>
        <mxCell id="Ha8SSbPoC3t7y5uVHx6J-2" value="0..1" style="text;html=1;align=center;verticalAlign=middle;resizable=0;points=[];autosize=1;strokeColor=none;fillColor=none;" parent="WIyWlLk6GJQsqaUBKTNV-1" vertex="1">
          <mxGeometry x="650" y="620" width="40" height="30" as="geometry" />
        </mxCell>
        <mxCell id="Ha8SSbPoC3t7y5uVHx6J-3" value="tem" style="text;html=1;align=center;verticalAlign=middle;resizable=0;points=[];autosize=1;strokeColor=none;fillColor=none;" parent="WIyWlLk6GJQsqaUBKTNV-1" vertex="1">
          <mxGeometry x="650" y="693" width="40" height="30" as="geometry" />
        </mxCell>
        <mxCell id="Ha8SSbPoC3t7y5uVHx6J-4" value="0..1" style="text;html=1;align=center;verticalAlign=middle;resizable=0;points=[];autosize=1;strokeColor=none;fillColor=none;" parent="WIyWlLk6GJQsqaUBKTNV-1" vertex="1">
          <mxGeometry x="650" y="760" width="40" height="30" as="geometry" />
        </mxCell>
        <mxCell id="Ha8SSbPoC3t7y5uVHx6J-5" value="Agenda" style="swimlane;fontStyle=0;align=center;verticalAlign=top;childLayout=stackLayout;horizontal=1;startSize=26;horizontalStack=0;resizeParent=1;resizeLast=0;collapsible=1;marginBottom=0;rounded=0;shadow=0;strokeWidth=1;" parent="WIyWlLk6GJQsqaUBKTNV-1" vertex="1">
          <mxGeometry x="-413" y="236" width="240" height="190" as="geometry">
            <mxRectangle x="550" y="140" width="160" height="26" as="alternateBounds" />
          </mxGeometry>
        </mxCell>
        <mxCell id="Ha8SSbPoC3t7y5uVHx6J-18" value="- idAgenda: int (PK)" style="text;align=left;verticalAlign=top;spacingLeft=4;spacingRight=4;overflow=hidden;rotatable=0;points=[[0,0.5],[1,0.5]];portConstraint=eastwest;" parent="Ha8SSbPoC3t7y5uVHx6J-5" vertex="1">
          <mxGeometry y="26" width="240" height="26" as="geometry" />
        </mxCell>
        <mxCell id="Ha8SSbPoC3t7y5uVHx6J-6" value="- idMedico: int (FK)" style="text;align=left;verticalAlign=top;spacingLeft=4;spacingRight=4;overflow=hidden;rotatable=0;points=[[0,0.5],[1,0.5]];portConstraint=eastwest;" parent="Ha8SSbPoC3t7y5uVHx6J-5" vertex="1">
          <mxGeometry y="52" width="240" height="26" as="geometry" />
        </mxCell>
        <mxCell id="HVsXuJknIAWahlm6snJk-0" value="- status: boolean" style="text;align=left;verticalAlign=top;spacingLeft=4;spacingRight=4;overflow=hidden;rotatable=0;points=[[0,0.5],[1,0.5]];portConstraint=eastwest;" vertex="1" parent="Ha8SSbPoC3t7y5uVHx6J-5">
          <mxGeometry y="78" width="240" height="26" as="geometry" />
        </mxCell>
        <mxCell id="Ha8SSbPoC3t7y5uVHx6J-10" value="- data: Date" style="text;align=left;verticalAlign=top;spacingLeft=4;spacingRight=4;overflow=hidden;rotatable=0;points=[[0,0.5],[1,0.5]];portConstraint=eastwest;" parent="Ha8SSbPoC3t7y5uVHx6J-5" vertex="1">
          <mxGeometry y="104" width="240" height="26" as="geometry" />
        </mxCell>
        <mxCell id="Ha8SSbPoC3t7y5uVHx6J-8" value="" style="line;html=1;strokeWidth=1;align=left;verticalAlign=middle;spacingTop=-1;spacingLeft=3;spacingRight=3;rotatable=0;labelPosition=right;points=[];portConstraint=eastwest;" parent="Ha8SSbPoC3t7y5uVHx6J-5" vertex="1">
          <mxGeometry y="130" width="240" height="8" as="geometry" />
        </mxCell>
        <mxCell id="Ha8SSbPoC3t7y5uVHx6J-9" value="+ obterIdMedico: int&#xa;" style="text;align=left;verticalAlign=top;spacingLeft=4;spacingRight=4;overflow=hidden;rotatable=0;points=[[0,0.5],[1,0.5]];portConstraint=eastwest;" parent="Ha8SSbPoC3t7y5uVHx6J-5" vertex="1">
          <mxGeometry y="138" width="240" height="26" as="geometry" />
        </mxCell>
        <mxCell id="Ha8SSbPoC3t7y5uVHx6J-16" value="+ obterDataConsulta: Date&#xa;" style="text;align=left;verticalAlign=top;spacingLeft=4;spacingRight=4;overflow=hidden;rotatable=0;points=[[0,0.5],[1,0.5]];portConstraint=eastwest;" parent="Ha8SSbPoC3t7y5uVHx6J-5" vertex="1">
          <mxGeometry y="164" width="240" height="26" as="geometry" />
        </mxCell>
        <mxCell id="Ha8SSbPoC3t7y5uVHx6J-11" style="edgeStyle=orthogonalEdgeStyle;rounded=0;orthogonalLoop=1;jettySize=auto;html=1;entryX=1;entryY=0.5;entryDx=0;entryDy=0;" parent="WIyWlLk6GJQsqaUBKTNV-1" source="iw9Q5mtI_wV-XpBD978V-21" target="Ha8SSbPoC3t7y5uVHx6J-10" edge="1">
          <mxGeometry relative="1" as="geometry" />
        </mxCell>
        <mxCell id="Ha8SSbPoC3t7y5uVHx6J-13" value="0..N" style="text;html=1;align=center;verticalAlign=middle;resizable=0;points=[];autosize=1;strokeColor=none;fillColor=none;" parent="WIyWlLk6GJQsqaUBKTNV-1" vertex="1">
          <mxGeometry x="-160" y="300" width="50" height="30" as="geometry" />
        </mxCell>
        <mxCell id="Ha8SSbPoC3t7y5uVHx6J-14" value="tem" style="text;html=1;align=center;verticalAlign=middle;resizable=0;points=[];autosize=1;strokeColor=none;fillColor=none;" parent="WIyWlLk6GJQsqaUBKTNV-1" vertex="1">
          <mxGeometry x="-70" y="300" width="40" height="30" as="geometry" />
        </mxCell>
        <mxCell id="Ha8SSbPoC3t7y5uVHx6J-15" value="0..1" style="text;html=1;align=center;verticalAlign=middle;resizable=0;points=[];autosize=1;strokeColor=none;fillColor=none;" parent="WIyWlLk6GJQsqaUBKTNV-1" vertex="1">
          <mxGeometry x="30" y="300" width="40" height="30" as="geometry" />
        </mxCell>
        <mxCell id="Ha8SSbPoC3t7y5uVHx6J-23" style="edgeStyle=orthogonalEdgeStyle;rounded=0;orthogonalLoop=1;jettySize=auto;html=1;entryX=0.995;entryY=1.147;entryDx=0;entryDy=0;entryPerimeter=0;exitX=0;exitY=0.75;exitDx=0;exitDy=0;" parent="WIyWlLk6GJQsqaUBKTNV-1" source="T3oujVGupuCSrf6qP3ur-4" target="iw9Q5mtI_wV-XpBD978V-27" edge="1">
          <mxGeometry relative="1" as="geometry" />
        </mxCell>
        <mxCell id="Ha8SSbPoC3t7y5uVHx6J-24" value="0..N" style="text;html=1;align=center;verticalAlign=middle;resizable=0;points=[];autosize=1;strokeColor=none;fillColor=none;" parent="WIyWlLk6GJQsqaUBKTNV-1" vertex="1">
          <mxGeometry x="170" y="480" width="50" height="30" as="geometry" />
        </mxCell>
        <mxCell id="Ha8SSbPoC3t7y5uVHx6J-25" value="tem" style="text;html=1;align=center;verticalAlign=middle;resizable=0;points=[];autosize=1;strokeColor=none;fillColor=none;" parent="WIyWlLk6GJQsqaUBKTNV-1" vertex="1">
          <mxGeometry x="175" y="450" width="40" height="30" as="geometry" />
        </mxCell>
        <mxCell id="Ha8SSbPoC3t7y5uVHx6J-26" value="0..1" style="text;html=1;align=center;verticalAlign=middle;resizable=0;points=[];autosize=1;strokeColor=none;fillColor=none;" parent="WIyWlLk6GJQsqaUBKTNV-1" vertex="1">
          <mxGeometry x="175" y="424" width="40" height="30" as="geometry" />
        </mxCell>
        <mxCell id="Ha8SSbPoC3t7y5uVHx6J-27" value="0..N" style="text;html=1;align=center;verticalAlign=middle;resizable=0;points=[];autosize=1;strokeColor=none;fillColor=none;" parent="WIyWlLk6GJQsqaUBKTNV-1" vertex="1">
          <mxGeometry x="280" y="720" width="50" height="30" as="geometry" />
        </mxCell>
        <mxCell id="Ha8SSbPoC3t7y5uVHx6J-28" value="0..1" style="text;html=1;align=center;verticalAlign=middle;resizable=0;points=[];autosize=1;strokeColor=none;fillColor=none;" parent="WIyWlLk6GJQsqaUBKTNV-1" vertex="1">
          <mxGeometry x="502" y="550" width="40" height="30" as="geometry" />
        </mxCell>
        <mxCell id="Ha8SSbPoC3t7y5uVHx6J-29" value="tem" style="text;html=1;align=center;verticalAlign=middle;resizable=0;points=[];autosize=1;strokeColor=none;fillColor=none;" parent="WIyWlLk6GJQsqaUBKTNV-1" vertex="1">
          <mxGeometry x="410" y="630" width="40" height="30" as="geometry" />
        </mxCell>
        <mxCell id="Ha8SSbPoC3t7y5uVHx6J-33" style="edgeStyle=orthogonalEdgeStyle;rounded=0;orthogonalLoop=1;jettySize=auto;html=1;entryX=0;entryY=-0.192;entryDx=0;entryDy=0;entryPerimeter=0;exitX=0.5;exitY=1;exitDx=0;exitDy=0;" parent="WIyWlLk6GJQsqaUBKTNV-1" source="Ha8SSbPoC3t7y5uVHx6J-31" target="T3oujVGupuCSrf6qP3ur-17" edge="1">
          <mxGeometry relative="1" as="geometry">
            <Array as="points">
              <mxPoint x="-120" y="700" />
              <mxPoint x="-120" y="1060" />
              <mxPoint x="410" y="1060" />
              <mxPoint x="410" y="876" />
            </Array>
          </mxGeometry>
        </mxCell>
        <mxCell id="Ha8SSbPoC3t7y5uVHx6J-31" value="escreve" style="rhombus;whiteSpace=wrap;html=1;" parent="WIyWlLk6GJQsqaUBKTNV-1" vertex="1">
          <mxGeometry x="-160" y="613" width="80" height="80" as="geometry" />
        </mxCell>
        <mxCell id="Ha8SSbPoC3t7y5uVHx6J-34" style="edgeStyle=orthogonalEdgeStyle;rounded=0;orthogonalLoop=1;jettySize=auto;html=1;entryX=0.5;entryY=0;entryDx=0;entryDy=0;" parent="WIyWlLk6GJQsqaUBKTNV-1" target="Ha8SSbPoC3t7y5uVHx6J-31" edge="1">
          <mxGeometry relative="1" as="geometry">
            <mxPoint x="70" y="370" as="sourcePoint" />
          </mxGeometry>
        </mxCell>
      </root>
    </mxGraphModel>
  </diagram>
</mxfile>
